# xmcd CD database file
# Copyright (C) 1995-1998 Ti Kan
#
# Track frame offsets:
#	150
#	11487
#	22887
#	32327
#	47787
#	56117
#	68070
#	80480
#	91907
#	104732
#
# Disc length: 1536 seconds
#
# Revision: 34481612
# Submitted via:  AdeptDE 1.0
#
DISCID=7605fe0a
DTITLE=Ray Conniff / The Many Moods of Ray Conniff
TTITLE0=Somewhere My Love (Lara's Theme From 'Dr. Zhivago')
TTITLE1='s Wonderful
TTITLE2=Invisible Tears
TTITLE3=A Time For Us (Love Theme From 'Romeo and Juliet'
TTITLE4=Lookin' For Love
TTITLE5=Everybody's Talkin'
TTITLE6=Spinning Wheel
TTITLE7=Memories Are Made Of This
TTITLE8=Begin The Geguine
TTITLE9=Blue Moon
EXTD=DISC: 1\nUPC: 079891590327\nLABEL: Sony Music Special Products\nENSOREC
EXTD=ORD: 121776\n\nYEAR: 2000  ID3G:  17
EXTT0=PERFORMER: Ray Conniff\n
EXTT1=PERFORMER: Ray Conniff\n
EXTT2=PERFORMER: Ray Conniff\n
EXTT3=PERFORMER: Ray Conniff\n
EXTT4=PERFORMER: Ray Conniff\n
EXTT5=PERFORMER: Ray Conniff\n
EXTT6=PERFORMER: Ray Conniff\n
EXTT7=PERFORMER: Ray Conniff\n
EXTT8=PERFORMER: Ray Conniff\n
EXTT9=PERFORMER: Ray Conniff\n
PLAYORDER=
